{"title":"Burnt.2015.BRRip.720p.x264.AAC-PRiSTiNE [P2PDL]","uid":13111510,"size":637277177,"categoryP":"video","categoryS":"hd___movies","magnet":"?xt=urn:btih:9e1e6e104d5b8e5d8e521f754354cd92057b4056&amp;dn=Burnt.2015.BRRip.720p.x264.AAC-PRiSTiNE+%5BP2PDL%5D&amp;tr=udp%3A%2F%2Ftracker.leechers-paradise.org%3A6969&amp;tr=udp%3A%2F%2Fzer0day.ch%3A1337&amp;tr=udp%3A%2F%2Fopen.demonii.com%3A1337&amp;tr=udp%3A%2F%2Ftracker.coppersurfer.tk%3A6969&amp;tr=udp%3A%2F%2Fexodus.desync.com%3A6969","seeders":0,"leechers":5,"uploader":"VYTOP2PDL","files":7,"time":1451486534,"description":"____    ____ ____    ____ .___________.  ______   \r\n     /   /      /   / |           | /  __    \r\n    /   /      /   /  `---|  |----`|  |  |  | \r\n        /     _    _/       |  |     |  |  |  | \r\n       /        |  |         |  |     |  `--'  | \r\n    __/         |__|         |__|      ______/  \r\n                                                  \r\nPresenting Small Encodes with quality for years!\r\n                                                                                                   \r\n                                                                                                   \r\n\r\nBurnt.2015.BRRip.720p.x264.AAC-PRiSTiNE\r\n\r\n\r\nGenre: Comedy, Drama \nhttp://www.imdb.com/title/tt2503944/\r\n\r\n\r\nFormat                                   : MPEG-4\r\nFile size                                : 596 MiB\r\nDuration                                 : 1h 40mn\r\nOverall bit rate                         : 825 Kbps\r\n\r\nVideo\r\nFormat                                   : AVC\r\nBit rate                                 : 743 Kbps\r\nWidth                                    : 1 264 pixels\r\nHeight                                   : 528 pixels\r\nDisplay aspect ratio                     : 2.40:1\r\nFrame rate mode                          : Constant\r\nFrame rate                               : 23.976 fps\r\nBit depth                                : 8 bits\r\nStream size                              : 536 MiB (90%)\r\nWriting library                          : x264 \r\n\r\nAudio\r\nFormat                                   : AAC\r\nBit rate mode                            : Variable\r\nBit rate                                 : 80.0 Kbps\r\nChannel(s)                               : 2 channels\r\nChannel positions                        : Front: L R\r\nSampling rate                            : 48.0 KHz \r\nStream size                              : 57.8 MiB (10%)\r\nLanguage                                 : English\r\n\r\nSubtitle                                 : Yes (English)\r\n\r\nScreen Shots: (Click to view)\r\n \nhttp://ititli.com/Sh \nhttp://ititli.com/Ss \nhttp://ititli.com/SY \nhttp://ititli.com/S4 \nhttp://ititli.com/SK \nhttp://ititli.com/SV \nhttp://ititli.com/St \nhttp://ititli.com/SL \nhttp://ititli.com/Sd\r\n\r\n----------------------------------------------------------------------------------------------------\r\n\r\n\r\nEncoder Notes: Looking For Early Access To Anything You Can Provide WEBDL, DVDScr, DVDR, BluRay,\r\nDirect Audio, Music Releases and Seedboxes. If You Got anything to offer please contact us.\r\n\r\nSupport us by donating BC - 1FgwdzPsd1y25Gea8wP1qni35uGCtmkRCD\r\n\r\nSend some love!\r\nFind us and join us!","torrent":{"xt":"urn:btih:9e1e6e104d5b8e5d8e521f754354cd92057b4056","amp;dn":"Burnt.2015.BRRip.720p.x264.AAC-PRiSTiNE+%5BP2PDL%5D","amp;tr":["udp%3A%2F%2Ftracker.leechers-paradise.org%3A6969","udp%3A%2F%2Fzer0day.ch%3A1337","udp%3A%2F%2Fopen.demonii.com%3A1337","udp%3A%2F%2Ftracker.coppersurfer.tk%3A6969","udp%3A%2F%2Fexodus.desync.com%3A6969"],"infoHash":"9e1e6e104d5b8e5d8e521f754354cd92057b4056","infoHashBuffer":{"type":"Buffer","data":[158,30,110,16,77,91,142,93,142,82,31,117,67,84,205,146,5,123,64,86]},"announce":[],"urlList":[]}}